<svg id="Capa_1" enable-background="new 0 0 483.256 483.256" height="512" viewBox="0 0 483.256 483.256" width="512" xmlns="http://www.w3.org/2000/svg"><g><g id="icon_102_"><path d="m483.255 104.902v273.451c.051 6.826-2.837 13.344-7.927 17.892l-.719.719c-4.386 3.739-9.966 5.784-15.729 5.764h-434.504c-5.722-.002-11.256-2.046-15.606-5.764-.297-.175-.544-.422-.719-.719-5.125-4.534-8.057-11.05-8.05-17.892v-273.451c-.058-6.082 2.269-11.944 6.483-16.33 1.727-2.03 3.8-3.738 6.123-5.045 3.614-1.975 7.668-3.007 11.787-3h434.511c6.806.117 13.283 2.952 17.986 7.873 4.097 4.52 6.365 10.402 6.364 16.502z" fill="#f6b863"/><g fill="#eaa14e"><path d="m475.229 86.845-191.145 154.695-19.148 15.735-23.284 19.006-23.774-18.935-19.295-15.447-192.099-153.351 235.174 153.133z"/><path d="m475.329 396.269-.719.719-212.273-141.552c.89-.75 1.694-1.596 2.399-2.522 3.038-1.35 5.499-3.733 6.948-6.724 2.59-1.114 4.802-2.957 6.365-5.304h5.304z"/><path d="m220.318 255.772-211.571 141.193c-.297-.175-.544-.422-.719-.719l191.758-155.337h5.893c1.13 3.375 3.486 6.204 6.601 7.927 1.641 3.296 4.537 5.795 8.038 6.936z"/></g></g></g></svg>